<?xml version="1.0" encoding="utf-8"?>
<svg version="1.1" xmlns:xlink="http://www.w3.org/1999/xlink" width="17px" height="16px" xmlns="http://www.w3.org/2000/svg">
  <defs>
    <mask fill="white" id="clip1">
      <path d="M 17 8  C 17 12.48  13.26 16  8.5 16  C 3.74 16  0 12.48  0 8  C 0 3.52  3.74 0  8.5 0  C 13.26 0  17 3.52  17 8  Z " fill-rule="evenodd" />
    </mask>
  </defs>
  <g transform="matrix(1 0 0 1 -1208 -495 )">
    <path d="M 17 8  C 17 12.48  13.26 16  8.5 16  C 3.74 16  0 12.48  0 8  C 0 3.52  3.74 0  8.5 0  C 13.26 0  17 3.52  17 8  Z " fill-rule="nonzero" fill="#ffffff" stroke="none" transform="matrix(1 0 0 1 1208 495 )" />
    <path d="M 17 8  C 17 12.48  13.26 16  8.5 16  C 3.74 16  0 12.48  0 8  C 0 3.52  3.74 0  8.5 0  C 13.26 0  17 3.52  17 8  Z " stroke-width="4" stroke="#409eff" fill="none" transform="matrix(1 0 0 1 1208 495 )" mask="url(#clip1)" />
  </g>
</svg>