<?xml version="1.0" encoding="utf-8"?>
<svg version="1.1" xmlns:xlink="http://www.w3.org/1999/xlink" width="48px" height="32px" xmlns="http://www.w3.org/2000/svg">
  <g transform="matrix(1 0 0 1 -1284 -279 )">
    <path d="M 1285 288  A 8 8 0 0 1 1293 280 L 1323 280  A 8 8 0 0 1 1331 288 L 1331 302  A 8 8 0 0 1 1323 310 L 1293 310  A 8 8 0 0 1 1285 302 L 1285 288  Z " fill-rule="nonzero" fill="#f56c6c" stroke="none" fill-opacity="0.0980392156862745" />
    <path d="M 1284.5 288  A 8.5 8.5 0 0 1 1293 279.5 L 1323 279.5  A 8.5 8.5 0 0 1 1331.5 288 L 1331.5 302  A 8.5 8.5 0 0 1 1323 310.5 L 1293 310.5  A 8.5 8.5 0 0 1 1284.5 302 L 1284.5 288  Z " stroke-width="1" stroke="#f56c6c" fill="none" stroke-opacity="0.2" />
  </g>
</svg>