<?xml version="1.0" encoding="utf-8"?>
<svg version="1.1" xmlns:xlink="http://www.w3.org/1999/xlink" width="76px" height="32px" xmlns="http://www.w3.org/2000/svg">
  <g transform="matrix(1 0 0 1 -1193 -279 )">
    <path d="M 1194 288  A 8 8 0 0 1 1202 280 L 1260 280  A 8 8 0 0 1 1268 288 L 1268 302  A 8 8 0 0 1 1260 310 L 1202 310  A 8 8 0 0 1 1194 302 L 1194 288  Z " fill-rule="nonzero" fill="#e6a23c" stroke="none" fill-opacity="0.0980392156862745" />
    <path d="M 1193.5 288  A 8.5 8.5 0 0 1 1202 279.5 L 1260 279.5  A 8.5 8.5 0 0 1 1268.5 288 L 1268.5 302  A 8.5 8.5 0 0 1 1260 310.5 L 1202 310.5  A 8.5 8.5 0 0 1 1193.5 302 L 1193.5 288  Z " stroke-width="1" stroke="#e6a23c" fill="none" stroke-opacity="0.2" />
  </g>
</svg>