<?xml version="1.0" encoding="utf-8"?>
<svg version="1.1" xmlns:xlink="http://www.w3.org/1999/xlink" width="9px" height="6px" xmlns="http://www.w3.org/2000/svg">
  <g transform="matrix(1 0 0 1 -984 -814 )">
    <path d="M 8.9098196392786 0.618556701030908  C 8.96993987975957 0.687285223367598  9 0.766323024055014  9 0.855670103092686  C 9 0.945017182130594  8.96993987975957 1.02405498281777  8.9098196392786 1.0927835051547  L 4.70741482965933 5.89690721649485  C 4.64729458917836 5.96563573883154  4.57815631262529 6  4.5 6  C 4.42184368737471 6  4.35270541082164 5.96563573883154  4.29258517034067 5.89690721649485  L 0.0901803607213992 1.0927835051547  C 0.0300601202404323 1.02405498281777  0 0.945017182130594  0 0.855670103092686  C 0 0.766323024055014  0.0300601202404323 0.687285223367598  0.0901803607213992 0.618556701030908  L 0.541082164328702 0.103092783505151  C 0.601202404809567 0.0343642611684622  0.670340681362745 0  0.748496993987931 0  C 0.826653306613218 0  0.895791583166294 0.0343642611684622  0.955911823647261 0.103092783505151  L 4.5 4.15463917525777  L 8.04408817635274 0.103092783505151  C 8.10420841683371 0.0343642611684622  8.17334669338678 0  8.25150300601207 0  C 8.32965931863725 0  8.39879759519043 0.0343642611684622  8.4589178356713 0.103092783505151  L 8.9098196392786 0.618556701030908  Z " fill-rule="nonzero" fill="#dcdfe6" stroke="none" transform="matrix(1 0 0 1 984 814 )" />
  </g>
</svg>